#!OML:ASF F:\twosubjects\two\Thursday\Session 1\Rory.ASF
:FULLY-SPECIFIED
:DEGREES
254
root 10.9704 17.8342 6.34292 6.35359 -61.9301 7.64378
lowerback 19.1458 0.693807 -2.96492
upperback 10.3875 -0.0814103 -0.993584
thorax 0.463167 -0.331356 0.638515
lowerneck -11.0077 4.57122 2.80754
upperneck -7.19795 5.55521 -4.14797
head -0.215498 2.64028 -1.58695
rclavicle -3.25261e-014 1.55301e-014
rhumerus -77.1091 -24.6887 -25.3805
rradius 12.899
rwrist 65.8773
rhand -4.87001 20.3043
rfingers 7.12502
rthumb 20.9183 -8.58781
lclavicle -3.25261e-014 1.55301e-014
lhumerus -69.4986 2.02242 79.339
lradius 17.0165
lwrist -46.8587
lhand 2.65014 33.0414
lfingers 7.12502
lthumb 28.1262 60.9521
rfemur -28.3522 12.2173 -3.1587
rtibia 33.1786
rfoot -18.1462 -12.4073
rtoes -6.49051
lfemur -31.9938 8.40317 -18.1102
ltibia 43.8963
lfoot -20.2442 -4.36076
ltoes 9.57742
255
root 11.0072 17.831 6.35687 6.49809 -62.0786 7.41912
lowerback 19.3546 0.705756 -2.91116
upperback 10.4652 -0.0741487 -1.01904
thorax 0.441068 -0.329042 0.57981
lowerneck -10.9375 5.16862 3.68103
upperneck -7.13942 6.24795 -5.24175
head -0.111761 2.96586 -2.065
rclavicle 2.38542e-015 -3.98687e-014
rhumerus -79.2702 -26.2041 -20.4133
rradius 12.6626
rwrist 69.5491
rhand -4.00419 23.771
rfingers 7.12502
rthumb 21.7499 -5.02699
lclavicle 2.38542e-015 -3.98687e-014
lhumerus -69.572 1.72341 79.464
lradius 17.1601
lwrist -47.3441
lhand 3.8391 31.8967
lfingers 7.12502
lthumb 29.2621 59.6151
rfemur -28.7041 11.1067 -2.48035
rtibia 34.0729
rfoot -18.7792 -12.676
rtoes -5.50123
lfemur -32.1606 8.58159 -18.1329
ltibia 44.1482
lfoot -20.0172 -4.55409
ltoes 12.091
256
root 11.045 17.8236 6.36966 5.99985 -62.3668 7.9299
lowerback 19.5935 0.945392 -2.98782
upperback 10.5558 0.199717 -1.15719
thorax 0.41126 -0.19696 0.425522
lowerneck -10.5345 5.55739 4.44808
upperneck -7.49235 6.67281 -6.25199
head -0.201217 3.16572 -2.53065
rclavicle -3.3048e-015 -3.08116e-015
rhumerus -78.2471 -25.3092 -25.2737
rradius 12.8339
rwrist 67.6723
rhand -8.25165 19.7681
rfingers 7.12502
rthumb 17.6667 -9.44931
lclavicle -3.3048e-015 -3.08116e-015
lhumerus -69.5234 0.558535 80.268
lradius 17.3131
lwrist -47.4166
lhand 4.39455 30.01
lfingers 7.12502
lthumb 29.7923 57.6347
rfemur -29.1803 9.53212 -2.02375
rtibia 35.1517
rfoot -18.4878 -13.2625
rtoes -10.4111
lfemur -32.3225 8.90279 -18.5815
ltibia 44.4095
lfoot -20.1244 -4.35953
ltoes 10.2844
257
root 11.0807 17.8242 6.3753 5.63777 -62.7336 8.3205
lowerback 19.7141 1.18046 -3.21695
upperback 10.7248 0.446894 -1.19691
thorax 0.527341 -0.091675 0.465263
lowerneck -10.2627 5.96694 4.8467
upperneck -7.85562 7.16191 -7.05386
head -0.28537 3.40691 -2.86246
rclavicle -2.53947e-014 -4.19436e-014
rhumerus -77.4574 -24.8888 -28.2125
rradius 13.1514
rwrist 64.9098
rhand -7.31126 19.2985
rfingers 7.12502
rthumb 18.5714 -9.83496
lclavicle -2.53947e-014 -4.19436e-014
lhumerus -69.2639 0.156802 80.2923
lradius 17.194
lwrist -48.3145
lhand 4.17383 28.4642
lfingers 7.12502
lthumb 29.5816 56.1264
rfemur -29.6998 7.98138 -1.41174
rtibia 36.3668
rfoot -18.3183 -13.7905
rtoes -15.1829
lfemur -32.5114 9.47069 -18.9652
ltibia 44.6843
lfoot -20.4359 -4.06275
ltoes 6.04622
258
root 11.1155 17.8312 6.37268 6.09488 -62.9349 7.78685
lowerback 19.8295 1.19531 -3.31079
upperback 10.8537 0.441204 -0.98634
thorax 0.608098 -0.112142 0.741362
lowerneck -10.0199 6.42439 4.74857
upperneck -8.03876 7.77739 -7.60676
head -0.325674 3.72613 -3.0135
rclavicle 4.90998e-014 -6.44062e-014
rhumerus -76.7423 -24.5657 -29.9178
rradius 13.3645
rwrist 64.1075
rhand -7.66854 17.5866
rfingers 7.12502
rthumb 18.2277 -11.5793
lclavicle 4.90998e-014 -6.44062e-014
lhumerus -69.0141 1.16469 78.7722
lradius 16.8332
lwrist -50.6492
lhand 4.386 27.017
lfingers 7.12502
lthumb 29.7842 54.6432
rfemur -30.1496 6.67817 -0.324828
rtibia 37.645
rfoot -18.6502 -14.4361
rtoes -15.2478
lfemur -32.7439 9.86445 -18.7568
ltibia 44.9915
lfoot -20.1983 -4.28962
ltoes 4.11785
259
root 11.153 17.8313 6.36848 7.0078 -62.8905 6.76565
lowerback 19.9807 0.925727 -3.17317
upperback 10.8763 0.113636 -0.681454
thorax 0.567838 -0.279969 1.04829
lowerneck -9.26071 6.94101 4.20283
upperneck -8.50004 8.52009 -7.98226
head -0.561169 4.13695 -3.04552
rclavicle 8.19987e-015 -3.56322e-014
rhumerus -76.3172 -24.4218 -29.6108
rradius 13.3667
rwrist 65.1262
rhand -7.557 17.5245
rfingers 7.12502
rthumb 18.335 -11.6314
lclavicle 8.19987e-015 -3.56322e-014
lhumerus -69.2882 1.89776 78.8634
lradius 16.8577
lwrist -51.0222
lhand 3.89399 27.3826
lfingers 7.12502
lthumb 29.3145 55.0919
rfemur -30.5377 5.41074 0.973732
rtibia 38.9406
rfoot -19.1479 -15.3751
rtoes -13.6858
lfemur -33.1441 10.1582 -18.353
ltibia 45.3621
lfoot -19.4277 -4.5716
ltoes 2.4694
260
root 11.1896 17.8298 6.36229 7.66322 -62.8804 6.00682
lowerback 20.1325 0.597396 -3.23452
upperback 10.8748 -0.323289 -0.442434
thorax 0.510966 -0.508065 1.42003
lowerneck -8.42716 7.58264 3.9086
upperneck -8.90944 9.39956 -8.53782
head -0.76302 4.61591 -3.18719
rclavicle 5.15846e-014 1.49089e-015
rhumerus -75.8052 -24.3108 -28.8006
rradius 13.1007
rwrist 66.6626
rhand -6.9724 18.3996
rfingers 7.12502
rthumb 18.8974 -10.7024
lclavicle 5.15846e-014 1.49089e-015
lhumerus -69.7867 2.84936 78.8101
lradius 16.9615
lwrist -51.7061
lhand 3.32977 28.98
lfingers 7.12502
lthumb 28.7756 56.7821
rfemur -30.8963 4.19775 2.11294
rtibia 40.2639
rfoot -19.8324 -16.1798
rtoes -11.8146
lfemur -33.5697 10.648 -18.1469
ltibia 45.8019
lfoot -18.8745 -4.67073
ltoes -0.429195
261
root 11.2257 17.8359 6.35185 7.6187 -62.9818 5.86294
lowerback 20.4644 0.484975 -3.40032
upperback 10.9257 -0.519193 -0.457483
thorax 0.412318 -0.615522 1.53783
lowerneck -8.17724 8.07491 4.56897
upperneck -8.72551 10.0117 -9.46182
head -0.616778 4.91716 -3.59458
rclavicle -3.03147e-014 1.23743e-014
rhumerus -75.5269 -24.1917 -29.0097
rradius 12.9872
rwrist 66.6339
rhand -6.27174 19.3863
rfingers 7.12502
rthumb 19.5711 -9.64868
lclavicle -3.03147e-014 1.23743e-014
lhumerus -70.0909 3.11904 78.5652
lradius 17.0396
lwrist -51.9884
lhand 4.0603 27.1348
lfingers 7.12502
lthumb 29.4733 54.8161
rfemur -31.1252 3.19608 2.8826
rtibia 41.6478
rfoot -20.4781 -16.9123
rtoes -9.07554
lfemur -33.8078 11.0837 -18.1074
ltibia 46.3589
lfoot -18.4859 -5.23049
ltoes 0.555927
262
root 11.2592 17.844 6.33576 6.87381 -63.0698 6.51219
lowerback 20.8642 0.554375 -3.784
upperback 11.0182 -0.530173 -0.637264
thorax 0.319082 -0.636876 1.56874
lowerneck -8.20229 8.30998 5.14732
upperneck -8.58351 10.284 -10.0002
head -0.480949 5.03999 -3.86363
rclavicle 2.99171e-014 -1.49089e-014
rhumerus -75.5644 -24.1614 -29.8094
rradius 13.0542
rwrist 66.2375
rhand -6.26848 19.9619
rfingers 7.12502
rthumb 19.5743 -9.07276
lclavicle 2.99171e-014 -1.49089e-014
lhumerus -70.1122 2.59616 78.7523
lradius 17.199
lwrist -51.8956
lhand 3.46939 28.5232
lfingers 7.12502
lthumb 28.909 56.3026
rfemur -31.3649 2.38602 3.17363
rtibia 43.0937
rfoot -20.7563 -17.961
rtoes -7.84029
lfemur -34.1546 11.3876 -18.4351
ltibia 47.0811
lfoot -17.7152 -5.81099
ltoes 2.73229
263
root 11.2891 17.848 6.30594 6.17986 -63.148 7.23103
lowerback 21.2939 0.853725 -4.21777
upperback 11.1484 -0.262305 -0.822657
thorax 0.238778 -0.52332 1.56472
lowerneck -8.42847 8.37527 5.61164
upperneck -8.66895 10.3172 -10.238
head -0.426558 5.03975 -4.02069
rclavicle 3.8763e-015 -9.93923e-017
rhumerus -76.1873 -24.6151 -30.4556
rradius 13.1722
rwrist 66.7287
rhand -7.22775 19.8033
rfingers 7.12502
rthumb 18.6518 -9.32248
lclavicle 3.8763e-015 -9.93923e-017
lhumerus -69.7905 1.54686 79.1213
lradius 17.3844
lwrist -51.9196
lhand 3.75818 30.2468
lfingers 7.12502
lthumb 29.1848 57.9786
rfemur -31.7632 1.80032 3.39522
rtibia 44.5681
rfoot -20.4676 -19.2412
rtoes -8.91624
lfemur -34.8191 11.7096 -18.7627
ltibia 48.024
lfoot -16.494 -6.3778
ltoes 1.85292
